<svg width="48" height="49" viewBox="0 0 48 49" fill="none" xmlns="http://www.w3.org/2000/svg">
<rect x="18" y="15.792" width="15" height="12" rx="2" fill="#EE4F53"/>
<path fill-rule="evenodd" clip-rule="evenodd" d="M15 9.44043H33C34.1046 9.44043 35 10.3359 35 11.4404V37.4404C35 38.545 34.1046 39.4404 33 39.4404H15C13.8954 39.4404 13 38.545 13 37.4404V11.4404C13 10.3359 13.8954 9.44043 15 9.44043ZM12 11.4404C12 9.78358 13.3431 8.44043 15 8.44043H33C34.6569 8.44043 36 9.78358 36 11.4404V37.4404C36 39.0973 34.6569 40.4404 33 40.4404H15C13.3431 40.4404 12 39.0973 12 37.4404V11.4404ZM30 14.4404H18C17.4477 14.4404 17 14.8881 17 15.4404V24.4404C17 24.9927 17.4477 25.4404 18 25.4404H30C30.5523 25.4404 31 24.9927 31 24.4404V15.4404C31 14.8881 30.5523 14.4404 30 14.4404ZM18 13.4404C16.8954 13.4404 16 14.3359 16 15.4404V24.4404C16 25.545 16.8954 26.4404 18 26.4404H30C31.1046 26.4404 32 25.545 32 24.4404V15.4404C32 14.3359 31.1046 13.4404 30 13.4404H18ZM17.5 29.4404C17.5 29.1643 17.7239 28.9404 18 28.9404H30C30.2761 28.9404 30.5 29.1643 30.5 29.4404C30.5 29.7166 30.2761 29.9404 30 29.9404H18C17.7239 29.9404 17.5 29.7166 17.5 29.4404ZM17.5 32.4404C17.5 32.1643 17.7239 31.9404 18 31.9404H30C30.2761 31.9404 30.5 32.1643 30.5 32.4404C30.5 32.7166 30.2761 32.9404 30 32.9404H18C17.7239 32.9404 17.5 32.7166 17.5 32.4404ZM18 34.9404C17.7239 34.9404 17.5 35.1643 17.5 35.4404C17.5 35.7166 17.7239 35.9404 18 35.9404H30C30.2761 35.9404 30.5 35.7166 30.5 35.4404C30.5 35.1643 30.2761 34.9404 30 34.9404H18Z" fill="#1A1A1A"/>
</svg>
