<svg width="49" height="49" viewBox="0 0 49 49" fill="none" xmlns="http://www.w3.org/2000/svg">
<path d="M18 22.0898C18 20.9853 18.8581 20.0898 19.9167 20.0898H39.0833C40.1419 20.0898 41 20.9853 41 22.0898V33.0898C41 34.1944 40.1419 35.0898 39.0833 35.0898H19.9167C18.8581 35.0898 18 34.1944 18 33.0898V22.0898Z" fill="#EE4F53"/>
<path fill-rule="evenodd" clip-rule="evenodd" d="M17.5 22.5859C17.5 22.3098 17.7239 22.0859 18 22.0859H42C42.2761 22.0859 42.5 22.3098 42.5 22.5859C42.5 22.8621 42.2761 23.0859 42 23.0859H18C17.7239 23.0859 17.5 22.8621 17.5 22.5859Z" fill="#1A1A1A"/>
<path fill-rule="evenodd" clip-rule="evenodd" d="M17 27.0859L14 27.0859C12.7682 27.0859 11.6909 26.4708 10.9719 25.9265C10.3107 25.4259 9.58688 25.0859 8.85605 25.0859L8 25.0859L8 24.0859L8.85605 24.0859C9.89306 24.0859 10.8273 24.5628 11.5755 25.1292C12.2266 25.6221 13.0893 26.0859 14 26.0859L17 26.0859L17 27.0859Z" fill="#1A1A1A"/>
<path fill-rule="evenodd" clip-rule="evenodd" d="M25.3521 18.941C25.156 19.1354 24.8394 19.1341 24.645 18.938L21.8242 16.0935C21.3733 15.6996 21.0641 15.4628 20.7236 15.3127C20.3893 15.1653 19.9866 15.0859 19.3333 15.0859L8 15.0859C7.72386 15.0859 7.5 14.8621 7.5 14.5859C7.5 14.3098 7.72386 14.0859 8 14.0859L19.3333 14.0859C20.0684 14.0859 20.622 14.1751 21.127 14.3977C21.6225 14.6161 22.0332 14.9476 22.4959 15.3525L22.5092 15.3642L25.355 18.2339C25.5495 18.4299 25.5481 18.7465 25.3521 18.941Z" fill="#1A1A1A"/>
<path fill-rule="evenodd" clip-rule="evenodd" d="M6.5 12.0859C7.60457 12.0859 8.5 12.9814 8.5 14.0859L8.5 25.0859C8.5 26.1905 7.60457 27.0859 6.5 27.0859C5.39543 27.0859 4.5 26.1905 4.5 25.0859L4.5 14.0859C4.5 12.9814 5.39543 12.0859 6.5 12.0859ZM7.5 14.0859C7.5 13.5337 7.05228 13.0859 6.5 13.0859C5.94772 13.0859 5.5 13.5337 5.5 14.0859L5.5 25.0859C5.5 25.6382 5.94772 26.0859 6.5 26.0859C7.05228 26.0859 7.5 25.6382 7.5 25.0859L7.5 14.0859Z" fill="#1A1A1A"/>
<path fill-rule="evenodd" clip-rule="evenodd" d="M40 19.0898H20C18.8954 19.0898 18 19.9853 18 21.0898V31.0898C18 32.1944 18.8954 33.0898 20 33.0898H40C41.1046 33.0898 42 32.1944 42 31.0898V21.0898C42 19.9853 41.1046 19.0898 40 19.0898ZM20 18.0898C18.3431 18.0898 17 19.433 17 21.0898V31.0898C17 32.7467 18.3431 34.0898 20 34.0898H40C41.6569 34.0898 43 32.7467 43 31.0898V21.0898C43 19.433 41.6569 18.0898 40 18.0898H20Z" fill="#1A1A1A"/>
<path fill-rule="evenodd" clip-rule="evenodd" d="M19.5 30.5859C19.5 30.3098 19.7239 30.0859 20 30.0859H27C27.2761 30.0859 27.5 30.3098 27.5 30.5859C27.5 30.8621 27.2761 31.0859 27 31.0859H20C19.7239 31.0859 19.5 30.8621 19.5 30.5859Z" fill="#1A1A1A"/>
<path d="M17.5386 16.5859C17.5386 16.5859 21.5325 20.945 22.7255 22.2471C23.9185 23.5491 20.9425 25.5801 19.166 24.0233L18.4304 23.2204C17.8622 22.6002 17.0596 22.2471 16.2185 22.2471L15.5935 22.2471C13.0519 22.2471 13 19.834 13 19.4165" fill="white"/>
<path fill-rule="evenodd" clip-rule="evenodd" d="M22.458 23.1097C22.5312 22.9259 22.5165 22.7608 22.3569 22.5866L17.17 16.9256L17.9073 16.25L23.0942 21.9111C23.5312 22.3879 23.5919 22.965 23.3871 23.4795C23.195 23.962 22.7846 24.3652 22.3111 24.6411C21.3684 25.1902 19.933 25.362 18.8365 24.4011L18.8159 24.383L18.0618 23.56C17.5882 23.0432 16.9195 22.7489 16.2185 22.7489L15.5935 22.7489C14.8759 22.7489 14.2994 22.5774 13.8458 22.286C13.3939 21.9957 13.0943 21.6059 12.8973 21.2154C12.5112 20.45 12.5 19.6427 12.5 19.4183L13.5 19.4183C13.5 19.6114 13.5149 20.2194 13.7901 20.7649C13.9238 21.0299 14.1136 21.2695 14.3863 21.4446C14.6572 21.6187 15.0403 21.7489 15.5935 21.7489L16.2185 21.7489C17.1999 21.7489 18.1361 22.1609 18.7991 22.8844L19.5151 23.6658C20.1935 24.2437 21.1231 24.1758 21.8077 23.777C22.1511 23.577 22.3721 23.3256 22.458 23.1097Z" fill="#1A1A1A"/>
</svg>
