<svg width="48" height="49" viewBox="0 0 48 49" fill="none" xmlns="http://www.w3.org/2000/svg">
<rect x="12" y="28.1201" width="24" height="12.75" rx="2" fill="#EE4F53"/>
<path fill-rule="evenodd" clip-rule="evenodd" d="M33.0117 13.3026C32.8164 13.4979 32.4998 13.4979 32.3046 13.3026C27.6237 8.62179 20.0346 8.62179 15.3538 13.3026C15.1585 13.4979 14.842 13.4979 14.6467 13.3026C14.4514 13.1073 14.4514 12.7908 14.6467 12.5955C19.718 7.52415 27.9403 7.52415 33.0117 12.5955C33.2069 12.7908 33.2069 13.1074 33.0117 13.3026ZM35 25.12H13C12.4477 25.12 12 25.5677 12 26.12V27.62H36V26.12C36 25.5677 35.5523 25.12 35 25.12ZM12 38.12V28.62H36V38.12C36 38.6722 35.5523 39.12 35 39.12H13C12.4477 39.12 12 38.6722 12 38.12ZM13 24.12C11.8954 24.12 11 25.0154 11 26.12V38.12C11 39.2245 11.8954 40.12 13 40.12H35C36.1046 40.12 37 39.2245 37 38.12V26.12C37 25.0154 36.1046 24.12 35 24.12H13ZM15 35.62C14.7239 35.62 14.5 35.8438 14.5 36.12C14.5 36.3961 14.7239 36.62 15 36.62H22C22.2761 36.62 22.5 36.3961 22.5 36.12C22.5 35.8438 22.2761 35.62 22 35.62H15ZM29.9598 15.8065C30.1551 16.0018 30.4717 16.0018 30.667 15.8065C30.8622 15.6113 30.8622 15.2947 30.667 15.0994C26.9739 11.4063 20.9862 11.4063 17.2932 15.0994C17.0979 15.2947 17.0979 15.6113 17.2932 15.8065C17.4884 16.0018 17.805 16.0018 18.0003 15.8065C21.3028 12.504 26.6573 12.504 29.9598 15.8065ZM28.5556 18.6962C28.3604 18.8914 28.0438 18.8914 27.8485 18.6962C25.7119 16.5596 22.2478 16.5596 20.1112 18.6962C19.9159 18.8914 19.5993 18.8914 19.4041 18.6962C19.2088 18.5009 19.2088 18.1843 19.4041 17.9891C21.9312 15.4619 26.0285 15.4619 28.5556 17.9891C28.7509 18.1843 28.7509 18.5009 28.5556 18.6962ZM25.6366 21.4833C25.8319 21.6785 26.1484 21.6785 26.3437 21.4833C26.539 21.288 26.539 20.9714 26.3437 20.7762C25.0385 19.4709 22.9222 19.4709 21.617 20.7762C21.4217 20.9714 21.4217 21.288 21.617 21.4833C21.8122 21.6785 22.1288 21.6785 22.3241 21.4833C23.2388 20.5685 24.7219 20.5685 25.6366 21.4833Z" fill="#1A1A1A"/>
</svg>
