<svg width="48" height="49" viewBox="0 0 48 49" fill="none" xmlns="http://www.w3.org/2000/svg">
<path fill-rule="evenodd" clip-rule="evenodd" d="M18.8589 8.44889C18.9534 8.34875 19.085 8.29199 19.2226 8.29199H33.7774C35.3608 8.29199 36.5 9.79226 36.5 11.4482V40.1357C36.5 41.7917 35.3608 43.292 33.7774 43.292H14.2226C12.6392 43.292 11.5 41.7917 11.5 40.1357V16.4482C11.5 16.3207 11.5488 16.1979 11.6363 16.1051L18.8589 8.44889ZM18.7226 10.0507V15.4482C18.7226 15.7244 18.4988 15.9482 18.2226 15.9482H13.1591L18.7226 10.0507ZM12.5 16.9482H18.2226C19.0511 16.9482 19.7226 16.2767 19.7226 15.4482V9.29199H33.7774C34.649 9.29199 35.5 10.1702 35.5 11.4482V40.1357C35.5 41.4138 34.649 42.292 33.7774 42.292H14.2226C13.351 42.292 12.5 41.4138 12.5 40.1357V16.9482Z" fill="#1A1A1A"/>
<path fill-rule="evenodd" clip-rule="evenodd" d="M19.375 17.792C19.375 17.5158 19.5989 17.292 19.875 17.292H28.875C29.1511 17.292 29.375 17.5158 29.375 17.792C29.375 18.0681 29.1511 18.292 28.875 18.292H19.875C19.5989 18.292 19.375 18.0681 19.375 17.792Z" fill="#1A1A1A"/>
<path fill-rule="evenodd" clip-rule="evenodd" d="M19.375 20.792C19.375 20.5158 19.5989 20.292 19.875 20.292H28.875C29.1511 20.292 29.375 20.5158 29.375 20.792C29.375 21.0681 29.1511 21.292 28.875 21.292H19.875C19.5989 21.292 19.375 21.0681 19.375 20.792Z" fill="#1A1A1A"/>
<path fill-rule="evenodd" clip-rule="evenodd" d="M19.375 23.792C19.375 23.5158 19.5989 23.292 19.875 23.292H28.875C29.1511 23.292 29.375 23.5158 29.375 23.792C29.375 24.0681 29.1511 24.292 28.875 24.292H19.875C19.5989 24.292 19.375 24.0681 19.375 23.792Z" fill="#1A1A1A"/>
<path d="M29 33.792C29 37.1061 26.3141 39.792 23 39.792C19.6859 39.792 17 37.1061 17 33.792C17 30.4779 19.6859 27.792 23 27.792C26.3141 27.792 29 30.4779 29 33.792Z" fill="#EE4F53"/>
<path fill-rule="evenodd" clip-rule="evenodd" d="M24.4947 28.3828C21.4208 28.3828 18.9297 30.874 18.9297 33.9478C18.9297 37.0217 21.4208 39.5128 24.4947 39.5128C27.5685 39.5128 30.0597 37.0217 30.0597 33.9478C30.0597 30.874 27.5685 28.3828 24.4947 28.3828ZM17.9297 33.9478C17.9297 30.3217 20.8685 27.3828 24.4947 27.3828C28.1208 27.3828 31.0597 30.3217 31.0597 33.9478C31.0597 37.574 28.1208 40.5128 24.4947 40.5128C20.8685 40.5128 17.9297 37.574 17.9297 33.9478Z" fill="#1A1A1A"/>
<path fill-rule="evenodd" clip-rule="evenodd" d="M27.3219 32.3196C27.5332 32.4974 27.5604 32.8128 27.3826 33.0241L24.0166 37.0241C23.9245 37.1335 23.7899 37.1983 23.6469 37.202C23.5039 37.2057 23.3662 37.1479 23.2685 37.0434L21.6345 35.2934C21.4461 35.0916 21.4569 34.7752 21.6588 34.5867C21.8606 34.3982 22.177 34.4091 22.3655 34.6109L23.6145 35.9487L26.6174 32.3802C26.7952 32.1689 27.1106 32.1418 27.3219 32.3196Z" fill="#1A1A1A"/>
</svg>
