<svg width="49" height="49" viewBox="0 0 49 49" fill="none" xmlns="http://www.w3.org/2000/svg">
<path d="M30.375 12.5859C26.787 12.5859 23.875 14.054 23.875 15.8605V31.5314C23.875 33.3379 26.787 34.8059 30.375 34.8059C33.963 34.8059 36.875 33.3379 36.875 31.5314V15.8605C36.875 14.054 33.963 12.5859 30.375 12.5859Z" fill="#EE4F53"/>
<path fill-rule="evenodd" clip-rule="evenodd" d="M22.8516 13.9766C23.0587 13.9766 23.2266 14.1445 23.2266 14.3516C23.2266 15.1865 23.86 16.0282 25.0724 16.6831C26.2695 17.3299 27.9486 17.7417 29.8227 17.7417C31.6968 17.7417 33.3759 17.3299 34.5731 16.6831C35.7854 16.0282 36.4189 15.1865 36.4189 14.3516C36.4189 14.1445 36.5868 13.9766 36.7939 13.9766C37.001 13.9766 37.1689 14.1445 37.1689 14.3516C37.1689 15.5937 36.2408 16.6346 34.9296 17.343C33.6031 18.0596 31.7967 18.4917 29.8227 18.4917C27.8488 18.4917 26.0423 18.0596 24.7159 17.343C23.4046 16.6346 22.4766 15.5937 22.4766 14.3516C22.4766 14.1445 22.6445 13.9766 22.8516 13.9766Z" fill="#1A1A1A"/>
<path fill-rule="evenodd" clip-rule="evenodd" d="M22.8516 17.1094C23.0587 17.1094 23.2266 17.2773 23.2266 17.4844C23.2266 18.3193 23.86 19.161 25.0724 19.816C26.2695 20.4627 27.9486 20.8746 29.8227 20.8746C31.6968 20.8746 33.3759 20.4627 34.5731 19.816C35.7854 19.161 36.4189 18.3193 36.4189 17.4844C36.4189 17.2773 36.5868 17.1094 36.7939 17.1094C37.001 17.1094 37.1689 17.2773 37.1689 17.4844C37.1689 18.7266 36.2408 19.7674 34.9296 20.4758C33.6031 21.1924 31.7967 21.6246 29.8227 21.6246C27.8488 21.6246 26.0423 21.1924 24.7159 20.4758C23.4046 19.7674 22.4766 18.7266 22.4766 17.4844C22.4766 17.2773 22.6445 17.1094 22.8516 17.1094Z" fill="#1A1A1A"/>
<path fill-rule="evenodd" clip-rule="evenodd" d="M36.7929 20.2539C37 20.2539 37.1679 20.4218 37.1679 20.6289C37.1679 21.8711 36.2398 22.912 34.9286 23.6204C33.6022 24.3369 31.7957 24.7691 29.8217 24.7691C28.804 24.7691 27.8269 24.653 26.9471 24.4453C26.7456 24.3977 26.6207 24.1957 26.6683 23.9942C26.7159 23.7926 26.9179 23.6678 27.1195 23.7154C27.9406 23.9092 28.8597 24.0191 29.8217 24.0191C31.6959 24.0191 33.375 23.6072 34.5721 22.9605C35.7844 22.3055 36.4179 21.4638 36.4179 20.6289C36.4179 20.4218 36.5858 20.2539 36.7929 20.2539Z" fill="#1A1A1A"/>
<path fill-rule="evenodd" clip-rule="evenodd" d="M36.7928 26.5273C36.9999 26.5273 37.1678 26.6952 37.1678 26.9023C37.1678 28.1445 36.2397 29.1854 34.9285 29.8938C33.602 30.6104 31.7956 31.0425 29.8216 31.0425C28.8038 31.0425 27.8268 30.9265 26.947 30.7187C26.7454 30.6711 26.6206 30.4692 26.6682 30.2676C26.7158 30.066 26.9178 29.9412 27.1193 29.9888C27.9405 30.1827 28.8596 30.2925 29.8216 30.2925C31.6957 30.2925 33.3749 29.8807 34.572 29.2339C35.7843 28.579 36.4178 27.7373 36.4178 26.9023C36.4178 26.6952 36.5857 26.5273 36.7928 26.5273Z" fill="#1A1A1A"/>
<path fill-rule="evenodd" clip-rule="evenodd" d="M36.7929 23.5625C37 23.5625 37.1679 23.7304 37.1679 23.9375C37.1679 25.1797 36.2398 26.2206 34.9286 26.9289C33.6022 27.6455 31.7957 28.0777 29.8217 28.0777C28.804 28.0777 27.8269 27.9616 26.9471 27.7539C26.7456 27.7063 26.6207 27.5043 26.6683 27.3027C26.7159 27.1012 26.9179 26.9764 27.1195 27.024C27.9406 27.2178 28.8597 27.3277 29.8217 27.3277C31.6959 27.3277 33.375 26.9158 34.5721 26.2691C35.7844 25.6141 36.4179 24.7724 36.4179 23.9375C36.4179 23.7304 36.5858 23.5625 36.7929 23.5625Z" fill="#1A1A1A"/>
<path fill-rule="evenodd" clip-rule="evenodd" d="M24.7159 11.3597C26.0423 10.6431 27.8488 10.2109 29.8227 10.2109C31.7967 10.2109 33.6031 10.6431 34.9296 11.3597C36.2408 12.068 37.1689 13.1089 37.1689 14.3511V30.0394C37.1689 31.2816 36.2408 32.3225 34.9296 33.0308C33.6031 33.7474 31.7967 34.1796 29.8227 34.1796C28.8049 34.1796 27.8279 34.0635 26.9481 33.8558C26.7465 33.8082 26.6217 33.6062 26.6693 33.4046C26.7169 33.2031 26.9189 33.0782 27.1204 33.1258C27.9416 33.3197 28.8607 33.4296 29.8227 33.4296C31.6968 33.4296 33.3759 33.0177 34.5731 32.371C35.7854 31.716 36.4189 30.8743 36.4189 30.0394V14.3511C36.4189 13.5162 35.7854 12.6745 34.5731 12.0195C33.3759 11.3728 31.6968 10.9609 29.8227 10.9609C27.9486 10.9609 26.2695 11.3728 25.0724 12.0195C23.86 12.6745 23.2266 13.5162 23.2266 14.3511V20.6264C23.2266 20.8335 23.0587 21.0014 22.8516 21.0014C22.6445 21.0014 22.4766 20.8335 22.4766 20.6264V14.3511C22.4766 13.1089 23.4046 12.068 24.7159 11.3597Z" fill="#1A1A1A"/>
<path fill-rule="evenodd" clip-rule="evenodd" d="M11 25.2734C11.2071 25.2734 11.375 25.4413 11.375 25.6484C11.375 26.4834 12.0085 27.3251 13.2208 27.98C14.4179 28.6267 16.097 29.0386 17.9712 29.0386C19.8453 29.0386 21.5244 28.6267 22.7215 27.98C23.9338 27.3251 24.5673 26.4834 24.5673 25.6484C24.5673 25.4413 24.7352 25.2734 24.9423 25.2734C25.1494 25.2734 25.3173 25.4413 25.3173 25.6484C25.3173 26.8906 24.3892 27.9315 23.078 28.6399C21.7516 29.3565 19.9451 29.7886 17.9712 29.7886C15.9972 29.7886 14.1907 29.3565 12.8643 28.6399C11.5531 27.9315 10.625 26.8906 10.625 25.6484C10.625 25.4413 10.7929 25.2734 11 25.2734Z" fill="#1A1A1A"/>
<path fill-rule="evenodd" clip-rule="evenodd" d="M12.8643 22.6526C14.1907 21.9361 15.9972 21.5039 17.9712 21.5039C19.9451 21.5039 21.7516 21.9361 23.078 22.6526C24.3892 23.361 25.3173 24.4019 25.3173 25.6441V35.057C25.3173 36.2992 24.3892 37.3401 23.078 38.0485C21.7516 38.7651 19.9451 39.1972 17.9712 39.1972C15.9972 39.1972 14.1907 38.7651 12.8643 38.0485C11.5531 37.3401 10.625 36.2992 10.625 35.057V25.6441C10.625 24.4019 11.5531 23.361 12.8643 22.6526ZM13.2208 23.3125C12.0085 23.9674 11.375 24.8091 11.375 25.6441V35.057C11.375 35.892 12.0085 36.7337 13.2208 37.3886C14.4179 38.0354 16.097 38.4472 17.9712 38.4472C19.8453 38.4472 21.5244 38.0354 22.7215 37.3886C23.9338 36.7337 24.5673 35.892 24.5673 35.057V25.6441C24.5673 24.8091 23.9338 23.9674 22.7215 23.3125C21.5244 22.6658 19.8453 22.2539 17.9712 22.2539C16.097 22.2539 14.4179 22.6658 13.2208 23.3125Z" fill="#1A1A1A"/>
</svg>
