<svg width="49" height="49" viewBox="0 0 49 49" fill="none" xmlns="http://www.w3.org/2000/svg">
<path d="M24.5 15.6094C22.299 15.6094 20.5 17.4084 20.5 19.6094C20.5 21.8103 22.299 23.6094 24.5 23.6094C26.701 23.6094 28.5 21.8103 28.5 19.6094C28.5 17.4084 26.701 15.6094 24.5 15.6094Z" fill="#EE4F53"/>
<path d="M36.8752 34.4609C36.8752 36.3939 31.2788 37.9609 24.3752 37.9609C17.4717 37.9609 11.8752 36.3939 11.8752 34.4609C11.8752 32.5279 17.4717 30.9609 24.3752 30.9609C31.2788 30.9609 36.8752 32.5279 36.8752 34.4609Z" fill="#EE4F53"/>
<path fill-rule="evenodd" clip-rule="evenodd" d="M11.6635 28.7854C11.9352 28.364 12.4023 28.1094 12.9037 28.1094H19.7431C20.0058 28.1094 20.2187 28.3223 20.2187 28.585C20.2187 28.8477 20.0058 29.0606 19.7431 29.0606H12.9037C12.7255 29.0606 12.5595 29.1511 12.463 29.3008L6.39301 38.7155C6.16803 39.0644 6.41855 39.524 6.83374 39.524H41.2973C41.6974 39.524 41.9502 39.0939 41.7554 38.7444L36.5102 29.3298C36.4177 29.1636 36.2424 29.0606 36.0521 29.0606H29.2553C28.9926 29.0606 28.7797 28.8477 28.7797 28.585C28.7797 28.3223 28.9926 28.1094 29.2553 28.1094H36.0521C36.5874 28.1094 37.0807 28.3992 37.3412 28.8668L42.5864 38.2814C43.1344 39.265 42.4232 40.4752 41.2973 40.4752H6.83374C5.6654 40.4752 4.96046 39.182 5.59355 38.2L11.6635 28.7854Z" fill="#1A1A1A"/>
<path fill-rule="evenodd" clip-rule="evenodd" d="M24.5 9.60938C19.8381 9.60938 16 13.511 16 18.3608C16 19.8511 16.4773 21.5252 17.2572 23.2474C18.0329 24.9605 19.0799 26.6604 20.1531 28.1857C22.0243 30.8451 23.932 32.9129 24.5001 33.512C25.0684 32.9132 26.9759 30.8479 28.8471 28.1899C29.9202 26.6655 30.9671 24.966 31.7428 23.2525C32.5225 21.5299 33 19.8542 33 18.3608C33 13.511 29.1619 9.60938 24.5 9.60938ZM15 18.3608C15 12.9835 19.2614 8.60938 24.5 8.60938C29.7386 8.60938 34 12.9835 34 18.3608C34 25.1262 25.4205 34.0028 25.0568 34.3761C24.9091 34.5277 24.7045 34.6094 24.5 34.6094C24.2955 34.6094 24.1023 34.5394 23.9432 34.3761C23.5795 34.0028 15 25.1145 15 18.3608Z" fill="#1A1A1A"/>
<path fill-rule="evenodd" clip-rule="evenodd" d="M24.5 14.6094C22.5762 14.6094 21 16.1856 21 18.1094C21 20.0332 22.5762 21.6094 24.5 21.6094C26.4238 21.6094 28 20.0332 28 18.1094C28 16.1856 26.4238 14.6094 24.5 14.6094ZM20 18.1094C20 15.6333 22.0239 13.6094 24.5 13.6094C26.9761 13.6094 29 15.6333 29 18.1094C29 20.5855 26.9761 22.6094 24.5 22.6094C22.0239 22.6094 20 20.5855 20 18.1094Z" fill="#1A1A1A"/>
</svg>
